<svg width="30" height="30" viewBox="0 0 30 30" fill="none" xmlns="http://www.w3.org/2000/svg">
<path d="M29.6413 23.8931L25.7632 19.1331L25.6251 10.75C25.6296 10.6934 25.6296 10.6366 25.6251 10.58C24.4032 3.92875 20.5357 0.125 15.0001 0.125C9.15632 0.125 4.46007 4.375 3.31257 10.5588C3.30682 10.6224 3.30682 10.6864 3.31257 10.75L3.17444 19.25L0.273818 24.01C0.180564 24.1715 0.13147 24.3547 0.13147 24.5413C0.13147 24.7278 0.180564 24.911 0.273818 25.0725C0.363812 25.237 0.495756 25.3748 0.656245 25.4719C0.816734 25.5689 1.00005 25.6217 1.18757 25.625H10.7501C10.7501 26.7522 11.1978 27.8332 11.9949 28.6302C12.7919 29.4272 13.8729 29.875 15.0001 29.875C16.1272 29.875 17.2082 29.4272 18.0053 28.6302C18.8023 27.8332 19.2501 26.7522 19.2501 25.625H28.8126C29.0128 25.6244 29.2089 25.5673 29.3781 25.4601C29.5472 25.353 29.6827 25.2002 29.7688 25.0194C29.856 24.8388 29.8904 24.6371 29.8678 24.4378C29.8452 24.2385 29.7667 24.0497 29.6413 23.8931ZM15.0001 27.75C14.4365 27.75 13.896 27.5261 13.4975 27.1276C13.099 26.7291 12.8751 26.1886 12.8751 25.625H17.1251C17.1251 26.1886 16.9012 26.7291 16.5027 27.1276C16.1042 27.5261 15.5637 27.75 15.0001 27.75ZM3.06819 23.5L5.19319 20.0575C5.28869 19.8966 5.34 19.7133 5.34194 19.5263L5.43757 10.8563C6.40444 5.70313 10.2401 2.25 15.0001 2.25C20.9819 2.25 22.8944 7.5625 23.5001 10.8563L23.6488 19.5263C23.6502 19.7659 23.7326 19.9981 23.8826 20.185L26.5813 23.5H3.06819Z" fill="black"/>
</svg>
