<svg width="223" height="246" viewBox="0 0 223 246" fill="none" xmlns="http://www.w3.org/2000/svg">
<path d="M183 113.5C183 152.988 150.988 185 111.5 185C92.7825 185 75.7449 177.808 63 166.036C48.8569 152.973 40 134.271 40 113.5C40 74.0116 72.0116 42 111.5 42C150.988 42 183 74.0116 183 113.5Z" fill="#FF0040"/>
<path d="M85 47L155.5 22L171 30L178 14.0213L215.324 0.785774C219.651 -0.748741 223.843 3.38117 222.373 7.73075L178 139H85V47Z" fill="#FF0040"/>
<path d="M65.9534 61.4417L168.508 150.525L65.9534 190.884L42.9319 171.567L65.9534 61.4417Z" fill="#FF0040"/>
<path d="M11.6666 188.195C12.7786 183.475 17.5065 180.55 22.2266 181.662C26.9468 182.774 29.8718 187.502 28.7598 192.222L17.9182 238.242C16.8062 242.962 12.0783 245.887 7.35817 244.775C2.63801 243.663 -0.286995 238.936 0.824995 234.215L11.6666 188.195Z" fill="#FF0040"/>
<path d="M12.502 244.503C8.10915 246.557 2.88285 244.661 0.828724 240.268C-1.2254 235.875 0.670505 230.649 5.06334 228.595L47.8923 208.568C52.2851 206.514 57.5114 208.41 59.5655 212.802C61.6196 217.195 59.7237 222.421 55.3309 224.476L12.502 244.503Z" fill="#FF0040"/>
<path d="M60.8632 217.321C59.7512 222.042 55.0233 224.967 50.3031 223.855C45.583 222.743 42.658 218.015 43.77 213.295L54.6115 167.274C55.7235 162.554 60.4514 159.629 65.1716 160.741C69.8918 161.853 72.8168 166.581 71.7048 171.301L60.8632 217.321Z" fill="#FF0040"/>
<path d="M60.0278 161.014C64.4206 158.96 69.6469 160.856 71.701 165.248C73.7552 169.641 71.8593 174.868 67.4664 176.922L24.6375 196.949C20.2447 199.003 15.0184 197.107 12.9642 192.714C10.9101 188.321 12.806 183.095 17.1989 181.041L60.0278 161.014Z" fill="#FF0040"/>
</svg>
