<svg width="1731" height="1329" viewBox="0 0 1731 1329" fill="none" xmlns="http://www.w3.org/2000/svg">
<path d="M777 582C769.268 582 763 575.732 763 568C763 560.268 769.268 554 777 554H1271C1278.73 554 1285 560.268 1285 568C1285 575.732 1278.73 582 1271 582H777Z" fill="#D9D8DA"/>
<path d="M552 582C544.268 582 538 575.732 538 568C538 560.268 544.268 554 552 554H1046C1053.73 554 1060 560.268 1060 568C1060 575.732 1053.73 582 1046 582H552Z" fill="#D9D8DA"/>
<path d="M791 508C783.268 508 777 501.732 777 494C777 486.268 783.268 480 791 480H1200C1207.73 480 1214 486.268 1214 494C1214 501.732 1207.73 508 1200 508H791Z" fill="#D9D8DA"/>
<path d="M614 508C606.268 508 600 501.732 600 494C600 486.268 606.268 480 614 480H1023C1030.73 480 1037 486.268 1037 494C1037 501.732 1030.73 508 1023 508H614Z" fill="#D9D8DA"/>
<path d="M828.276 502.999C823.306 497.076 824.078 488.246 830.001 483.276C835.924 478.306 844.755 479.078 849.725 485.001L911.433 558.542C916.403 564.465 915.63 573.295 909.707 578.265C903.784 583.235 894.953 582.463 889.983 576.54L828.276 502.999Z" fill="#D9D8DA"/>
<path d="M827.983 485.001C832.953 479.078 841.784 478.306 847.707 483.276C853.63 488.246 854.403 497.076 849.433 502.999L787.725 576.54C782.755 582.463 773.924 583.235 768.001 578.265C762.078 573.295 761.306 564.465 766.276 558.542L827.983 485.001Z" fill="#D9D8DA"/>
<path d="M951.276 502.999C946.306 497.076 947.078 488.246 953.001 483.276C958.924 478.306 967.755 479.078 972.725 485.001L1034.43 558.542C1039.4 564.465 1038.63 573.295 1032.71 578.265C1026.78 583.235 1017.95 582.463 1012.98 576.54L951.276 502.999Z" fill="#D9D8DA"/>
<path d="M950.983 485.001C955.953 479.078 964.784 478.306 970.707 483.276C976.63 488.246 977.403 497.076 972.433 502.999L910.725 576.54C905.755 582.463 896.924 583.235 891.001 578.265C885.078 573.295 884.306 564.465 889.276 558.542L950.983 485.001Z" fill="#D9D8DA"/>
<path d="M590.276 502.999C585.306 497.076 586.078 488.246 592.001 483.276C597.924 478.306 606.755 479.078 611.725 485.001L673.433 558.542C678.403 564.465 677.63 573.295 671.707 578.265C665.784 583.235 656.953 582.463 651.983 576.54L590.276 502.999Z" fill="#D9D8DA"/>
<path d="M589.983 485.001C594.953 479.078 603.784 478.306 609.707 483.276C615.63 488.246 616.403 497.076 611.433 502.999L549.725 576.54C544.755 582.463 535.924 583.235 530.001 578.265C524.078 573.295 523.306 564.465 528.276 558.542L589.983 485.001Z" fill="#D9D8DA"/>
<path d="M713.276 502.999C708.306 497.076 709.078 488.246 715.001 483.276C720.924 478.306 729.755 479.078 734.725 485.001L796.433 558.542C801.403 564.465 800.63 573.295 794.707 578.265C788.784 583.235 779.953 582.463 774.983 576.54L713.276 502.999Z" fill="#D9D8DA"/>
<path d="M712.983 485.001C717.953 479.078 726.784 478.306 732.707 483.276C738.63 488.246 739.403 497.076 734.433 502.999L672.725 576.54C667.755 582.463 658.924 583.235 653.001 578.265C647.078 573.295 646.306 564.465 651.276 558.542L712.983 485.001Z" fill="#D9D8DA"/>
<path d="M1075.28 502.999C1070.31 497.076 1071.08 488.246 1077 483.276C1082.92 478.306 1091.75 479.078 1096.72 485.001L1158.43 558.542C1163.4 564.465 1162.63 573.295 1156.71 578.265C1150.78 583.235 1141.95 582.463 1136.98 576.54L1075.28 502.999Z" fill="#D9D8DA"/>
<path d="M1074.98 485.001C1079.95 479.078 1088.78 478.306 1094.71 483.276C1100.63 488.246 1101.4 497.076 1096.43 502.999L1034.72 576.54C1029.75 582.463 1020.92 583.235 1015 578.265C1009.08 573.295 1008.31 564.465 1013.28 558.542L1074.98 485.001Z" fill="#D9D8DA"/>
<path d="M1198.28 502.999C1193.31 497.076 1194.08 488.246 1200 483.276C1205.92 478.306 1214.75 479.078 1219.72 485.001L1281.43 558.542C1286.4 564.465 1285.63 573.295 1279.71 578.265C1273.78 583.235 1264.95 582.463 1259.98 576.54L1198.28 502.999Z" fill="#D9D8DA"/>
<path d="M1197.98 485.001C1202.95 479.078 1211.78 478.306 1217.71 483.276C1223.63 488.246 1224.4 497.076 1219.43 502.999L1157.72 576.54C1152.75 582.463 1143.92 583.235 1138 578.265C1132.08 573.295 1131.31 564.465 1136.28 558.542L1197.98 485.001Z" fill="#D9D8DA"/>
<path d="M474 789C474 781.268 480.268 775 488 775C495.732 775 502 781.268 502 789V1283C502 1290.73 495.732 1297 488 1297C480.268 1297 474 1290.73 474 1283V789Z" fill="#D9D8DA"/>
<path d="M474 564C474 556.268 480.268 550 488 550C495.732 550 502 556.268 502 564V1058C502 1065.73 495.732 1072 488 1072C480.268 1072 474 1065.73 474 1058V564Z" fill="#D9D8DA"/>
<path d="M548 803C548 795.268 554.268 789 562 789C569.732 789 576 795.268 576 803V1212C576 1219.73 569.732 1226 562 1226C554.268 1226 548 1219.73 548 1212V803Z" fill="#D9D8DA"/>
<path d="M548 626C548 618.268 554.268 612 562 612C569.732 612 576 618.268 576 626V1035C576 1042.73 569.732 1049 562 1049C554.268 1049 548 1042.73 548 1035V626Z" fill="#D9D8DA"/>
<path d="M553.001 840.276C558.924 835.306 567.754 836.078 572.724 842.001C577.694 847.924 576.922 856.755 570.999 861.725L497.458 923.433C491.535 928.403 482.705 927.63 477.735 921.707C472.765 915.784 473.537 906.953 479.46 901.983L553.001 840.276Z" fill="#D9D8DA"/>
<path d="M570.999 839.983C576.922 844.953 577.694 853.784 572.724 859.707C567.754 865.63 558.924 866.403 553.001 861.433L479.46 799.725C473.537 794.755 472.765 785.924 477.735 780.001C482.705 774.078 491.535 773.306 497.458 778.276L570.999 839.983Z" fill="#D9D8DA"/>
<path d="M553.001 963.276C558.924 958.306 567.754 959.078 572.724 965.001C577.694 970.924 576.922 979.755 570.999 984.725L497.458 1046.43C491.535 1051.4 482.705 1050.63 477.735 1044.71C472.765 1038.78 473.537 1029.95 479.46 1024.98L553.001 963.276Z" fill="#D9D8DA"/>
<path d="M570.999 962.983C576.922 967.953 577.694 976.784 572.724 982.707C567.754 988.63 558.924 989.403 553.001 984.433L479.46 922.725C473.537 917.755 472.765 908.924 477.735 903.001C482.705 897.078 491.535 896.306 497.458 901.276L570.999 962.983Z" fill="#D9D8DA"/>
<path d="M553.001 602.276C558.924 597.306 567.754 598.078 572.724 604.001C577.694 609.924 576.922 618.755 570.999 623.725L497.458 685.433C491.535 690.403 482.705 689.63 477.735 683.707C472.765 677.784 473.537 668.953 479.46 663.983L553.001 602.276Z" fill="#D9D8DA"/>
<path d="M570.999 601.983C576.922 606.953 577.694 615.784 572.724 621.707C567.754 627.63 558.924 628.403 553.001 623.433L479.46 561.725C473.537 556.755 472.765 547.924 477.735 542.001C482.705 536.078 491.535 535.306 497.458 540.276L570.999 601.983Z" fill="#D9D8DA"/>
<path d="M553.001 725.276C558.924 720.306 567.754 721.078 572.724 727.001C577.694 732.924 576.922 741.755 570.999 746.725L497.458 808.433C491.535 813.403 482.705 812.63 477.735 806.707C472.765 800.784 473.537 791.953 479.46 786.983L553.001 725.276Z" fill="#D9D8DA"/>
<path d="M570.999 724.983C576.922 729.953 577.694 738.784 572.724 744.707C567.754 750.63 558.924 751.403 553.001 746.433L479.46 684.725C473.537 679.755 472.765 670.924 477.735 665.001C482.705 659.078 491.535 658.306 497.458 663.276L570.999 724.983Z" fill="#D9D8DA"/>
<path d="M553.001 1087.28C558.924 1082.31 567.754 1083.08 572.724 1089C577.694 1094.92 576.922 1103.75 570.999 1108.72L497.458 1170.43C491.535 1175.4 482.705 1174.63 477.735 1168.71C472.765 1162.78 473.537 1153.95 479.46 1148.98L553.001 1087.28Z" fill="#D9D8DA"/>
<path d="M570.999 1086.98C576.922 1091.95 577.694 1100.78 572.724 1106.71C567.754 1112.63 558.924 1113.4 553.001 1108.43L479.46 1046.72C473.537 1041.75 472.765 1032.92 477.735 1027C482.705 1021.08 491.535 1020.31 497.458 1025.28L570.999 1086.98Z" fill="#D9D8DA"/>
<path d="M553.001 1210.28C558.924 1205.31 567.754 1206.08 572.724 1212C577.694 1217.92 576.922 1226.75 570.999 1231.72L497.458 1293.43C491.535 1298.4 482.705 1297.63 477.735 1291.71C472.765 1285.78 473.537 1276.95 479.46 1271.98L553.001 1210.28Z" fill="#D9D8DA"/>
<path d="M570.999 1209.98C576.922 1214.95 577.694 1223.78 572.724 1229.71C567.754 1235.63 558.924 1236.4 553.001 1231.43L479.46 1169.72C473.537 1164.75 472.765 1155.92 477.735 1150C482.705 1144.08 491.535 1143.31 497.458 1148.28L570.999 1209.98Z" fill="#D9D8DA"/>
<path d="M14 582C6.26803 582 0 575.732 0 568C0 560.268 6.26801 554 14 554H508C515.732 554 522 560.268 522 568C522 575.732 515.732 582 508 582H14Z" fill="#D9D8DA"/>
<path d="M76 508C68.268 508 62 501.732 62 494C62 486.268 68.268 480 76 480H440C447.732 480 454 486.268 454 494C454 501.732 447.732 508 440 508H76Z" fill="#D9D8DA"/>
<path d="M315.276 502.999C310.306 497.076 311.078 488.246 317.001 483.276C322.924 478.306 331.755 479.078 336.725 485.001L398.433 558.542C403.403 564.465 402.63 573.295 396.707 578.265C390.784 583.235 381.953 582.463 376.983 576.54L315.276 502.999Z" fill="#D9D8DA"/>
<path d="M314.983 485.001C319.953 479.078 328.784 478.306 334.707 483.276C340.63 488.246 341.403 497.076 336.433 502.999L274.725 576.54C269.755 582.463 260.924 583.235 255.001 578.265C249.078 573.295 248.306 564.465 253.276 558.542L314.983 485.001Z" fill="#D9D8DA"/>
<path d="M438.276 502.999C433.306 497.076 434.078 488.246 440.001 483.276C445.924 478.306 454.755 479.078 459.725 485.001L521.433 558.542C526.403 564.465 525.63 573.295 519.707 578.265C513.784 583.235 504.953 582.463 499.983 576.54L438.276 502.999Z" fill="#D9D8DA"/>
<path d="M437.983 485.001C442.953 479.078 451.784 478.306 457.707 483.276C463.63 488.246 464.403 497.076 459.433 502.999L397.725 576.54C392.755 582.463 383.924 583.235 378.001 578.265C372.078 573.295 371.306 564.465 376.276 558.542L437.983 485.001Z" fill="#D9D8DA"/>
<path d="M65.2757 502.999C60.3057 497.076 61.0783 488.246 67.0013 483.276C72.9243 478.306 81.7549 479.078 86.725 485.001L148.433 558.542C153.403 564.465 152.63 573.295 146.707 578.265C140.784 583.235 131.953 582.463 126.983 576.54L65.2757 502.999Z" fill="#D9D8DA"/>
<path d="M64.9833 485.001C69.9533 479.078 78.7839 478.306 84.707 483.276C90.63 488.246 91.4026 497.076 86.4326 502.999L24.7249 576.54C19.7549 582.463 10.9243 583.235 5.0013 578.265C-0.921746 573.295 -1.69432 564.465 3.2757 558.542L64.9833 485.001Z" fill="#D9D8DA"/>
<path d="M188.276 502.999C183.306 497.076 184.078 488.246 190.001 483.276C195.924 478.306 204.755 479.078 209.725 485.001L271.433 558.542C276.403 564.465 275.63 573.295 269.707 578.265C263.784 583.235 254.953 582.463 249.983 576.54L188.276 502.999Z" fill="#D9D8DA"/>
<path d="M187.983 485.001C192.953 479.078 201.784 478.306 207.707 483.276C213.63 488.246 214.403 497.076 209.433 502.999L147.725 576.54C142.755 582.463 133.924 583.235 128.001 578.265C122.078 573.295 121.306 564.465 126.276 558.542L187.983 485.001Z" fill="#D9D8DA"/>
<path d="M474 91C474 83.268 480.268 77 488 77C495.732 77 502 83.268 502 91V585C502 592.732 495.732 599 488 599C480.268 599 474 592.732 474 585V91Z" fill="#D9D8DA"/>
<path d="M548 153C548 145.268 554.268 139 562 139C569.732 139 576 145.268 576 153V517C576 524.732 569.732 531 562 531C554.268 531 548 524.732 548 517V153Z" fill="#D9D8DA"/>
<path d="M553.001 392.276C558.924 387.306 567.754 388.078 572.724 394.001C577.694 399.924 576.922 408.755 570.999 413.725L497.458 475.433C491.535 480.403 482.705 479.63 477.735 473.707C472.765 467.784 473.537 458.953 479.46 453.983L553.001 392.276Z" fill="#D9D8DA"/>
<path d="M570.999 391.983C576.922 396.953 577.694 405.784 572.724 411.707C567.754 417.63 558.924 418.403 553.001 413.433L479.46 351.725C473.537 346.755 472.765 337.924 477.735 332.001C482.705 326.078 491.535 325.306 497.458 330.276L570.999 391.983Z" fill="#D9D8DA"/>
<path d="M553.001 515.276C558.924 510.306 567.754 511.078 572.724 517.001C577.694 522.924 576.922 531.755 570.999 536.725L497.458 598.433C491.535 603.403 482.705 602.63 477.735 596.707C472.765 590.784 473.537 581.953 479.46 576.983L553.001 515.276Z" fill="#D9D8DA"/>
<path d="M570.999 514.983C576.922 519.953 577.694 528.784 572.724 534.707C567.754 540.63 558.924 541.403 553.001 536.433L479.46 474.725C473.537 469.755 472.765 460.924 477.735 455.001C482.705 449.078 491.535 448.306 497.458 453.276L570.999 514.983Z" fill="#D9D8DA"/>
<path d="M553.001 142.276C558.924 137.306 567.754 138.078 572.724 144.001C577.694 149.924 576.922 158.755 570.999 163.725L497.458 225.433C491.535 230.403 482.705 229.63 477.735 223.707C472.765 217.784 473.537 208.953 479.46 203.983L553.001 142.276Z" fill="#D9D8DA"/>
<path d="M570.999 141.983C576.922 146.953 577.694 155.784 572.724 161.707C567.754 167.63 558.924 168.403 553.001 163.433L479.46 101.725C473.537 96.7549 472.765 87.9243 477.735 82.0013C482.705 76.0783 491.535 75.3057 497.458 80.2757L570.999 141.983Z" fill="#D9D8DA"/>
<path d="M553.001 265.276C558.924 260.306 567.754 261.078 572.724 267.001C577.694 272.924 576.922 281.755 570.999 286.725L497.458 348.433C491.535 353.403 482.705 352.63 477.735 346.707C472.765 340.784 473.537 331.953 479.46 326.983L553.001 265.276Z" fill="#D9D8DA"/>
<path d="M570.999 264.983C576.922 269.953 577.694 278.784 572.724 284.707C567.754 290.63 558.924 291.403 553.001 286.433L479.46 224.725C473.537 219.755 472.765 210.924 477.735 205.001C482.705 199.078 491.535 198.306 497.458 203.276L570.999 264.983Z" fill="#D9D8DA"/>
<path d="M561.944 220.09C557.101 217.464 555.303 211.409 557.929 206.565C560.554 201.721 566.61 199.923 571.454 202.549L1081.74 479.183C1086.58 481.809 1088.38 487.864 1085.75 492.708C1083.13 497.552 1077.07 499.35 1072.23 496.724L561.944 220.09Z" fill="#D9D8DA"/>
<path d="M466.989 204.809C471.016 201.048 477.329 201.265 481.089 205.292C484.85 209.319 484.633 215.632 480.606 219.393L184.294 496.067C180.266 499.827 173.953 499.61 170.193 495.583C166.433 491.556 166.649 485.243 170.676 481.483L466.989 204.809Z" fill="#D9D8DA"/>
<path d="M372 471C372 454.984 384.984 442 401 442H648C664.016 442 677 454.984 677 471V603C677 619.016 664.016 632 648 632H401C384.984 632 372 619.016 372 603V471Z" fill="#D9D8DA"/>
<path d="M265 1239C265 1211.39 287.386 1189 315 1189H735C762.614 1189 785 1211.39 785 1239V1329H265V1239Z" fill="#D9D8DA"/>
<path d="M1178 579C1178 573.477 1182.48 569 1188 569C1193.52 569 1198 573.477 1198 579V835C1198 840.523 1193.52 845 1188 845C1182.48 845 1178 840.523 1178 835V579Z" fill="#D9D8DA"/>
<path d="M1108 832C1108 818.193 1119.19 807 1133 807H1242C1255.81 807 1267 818.193 1267 832V873H1108V832Z" fill="#D9D8DA"/>
<path d="M1079 874C1079 864.059 1087.06 856 1097 856H1279C1288.94 856 1297 864.059 1297 874V887C1297 896.941 1288.94 905 1279 905H1097C1087.06 905 1079 896.941 1079 887V874Z" fill="#D9D8DA"/>
<path d="M863 112C863 88.2518 882.252 69 906 69H1054C1077.75 69 1097 88.2518 1097 112C1097 135.748 1077.75 155 1054 155H906C882.252 155 863 135.748 863 112Z" fill="#D9D8DA"/>
<path d="M939 68C939 30.4446 969.445 0 1007 0H1095C1132.56 0 1163 30.4446 1163 68V122C1163 159.555 1132.56 190 1095 190H1007C969.445 190 939 159.555 939 122V68Z" fill="#D9D8DA"/>
<path d="M1055 164.5C1055 131.087 1082.09 104 1115.5 104H1134.5C1167.91 104 1195 131.087 1195 164.5C1195 197.913 1167.91 225 1134.5 225H1115.5C1082.09 225 1055 197.913 1055 164.5Z" fill="#D9D8DA"/>
<path d="M1303 439.5C1303 409.953 1326.95 386 1356.5 386H1677.5C1707.05 386 1731 409.953 1731 439.5C1731 469.047 1707.05 493 1677.5 493H1356.5C1326.95 493 1303 469.047 1303 439.5Z" fill="#D9D8DA"/>
<path d="M1398 481.5C1398 459.685 1415.68 442 1437.5 442H1555.5C1577.32 442 1595 459.685 1595 481.5C1595 503.315 1577.32 521 1555.5 521H1437.5C1415.68 521 1398 503.315 1398 481.5Z" fill="#D9D8DA"/>
<path d="M1451 375.5C1451 339.878 1479.88 311 1515.5 311H1600.5C1636.12 311 1665 339.878 1665 375.5C1665 411.122 1636.12 440 1600.5 440H1515.5C1479.88 440 1451 411.122 1451 375.5Z" fill="#D9D8DA"/>
<path d="M1537 113C1537 175.408 1486.41 226 1424 226C1361.59 226 1311 175.408 1311 113C1311 50.5918 1361.59 0 1424 0C1486.41 0 1537 50.5918 1537 113Z" fill="#D9D8DA"/>
</svg>
